<svg xmlns="http://www.w3.org/2000/svg" xmlns:xlink="http://www.w3.org/1999/xlink" width="500" zoomAndPan="magnify" viewBox="0 0 375 374.999991" height="500" preserveAspectRatio="xMidYMid meet" version="1.0"><defs><clipPath id="5cbeb4efbf"><path d="M 31 34.257812 L 347 34.257812 L 347 341 L 31 341 Z M 31 34.257812 " clip-rule="nonzero"/></clipPath><clipPath id="c4ead29093"><path d="M 109 85 L 276 85 L 276 301 L 109 301 Z M 109 85 " clip-rule="nonzero"/></clipPath><clipPath id="7697cd6e42"><path d="M 330.992188 250.804688 L 192.023438 332.585938 L 69.535156 124.453125 L 208.507812 42.671875 Z M 330.992188 250.804688 " clip-rule="nonzero"/></clipPath><clipPath id="ed29ce9fc6"><path d="M 330.992188 250.804688 L 192.023438 332.585938 L 69.535156 124.453125 L 208.507812 42.671875 Z M 330.992188 250.804688 " clip-rule="nonzero"/></clipPath></defs><g clip-path="url(#5cbeb4efbf)"><path fill="#0c4352" d="M 90.800781 78.671875 L 90.800781 78.675781 C 87.167969 81.683594 83.824219 84.917969 80.765625 88.371094 C 82.234375 86.855469 83.757812 85.332031 85.332031 83.804688 C 86.714844 82.457031 88.539062 80.746094 90.800781 78.671875 M 76.007812 81.535156 C 73.542969 83.742188 71.355469 85.839844 69.445312 87.828125 C 67.535156 89.816406 65.832031 91.734375 64.328125 93.585938 C 67.730469 89.742188 71.625 85.722656 76.007812 81.535156 M 332.0625 153.210938 L 332.003906 153.859375 L 331.988281 154.511719 L 332.023438 155.171875 L 332.113281 155.839844 L 332.269531 156.519531 L 332.496094 157.210938 L 332.792969 157.914062 L 333.175781 158.636719 L 333.644531 159.378906 L 334.207031 160.144531 L 334.871094 160.929688 L 335.640625 161.742188 C 334.621094 159.203125 333.429688 156.363281 332.0625 153.210938 M 188.96875 34.371094 L 186.914062 34.382812 C 143.980469 36.242188 107.039062 51.933594 76.09375 81.457031 C 108.59375 52.960938 145.066406 38.296875 185.515625 37.457031 C 206.585938 37.601562 224.535156 40.785156 239.355469 47 C 261.523438 55.878906 279.242188 66.550781 292.515625 79.011719 C 302.167969 88.066406 309.363281 96.105469 314.089844 103.128906 C 302.207031 86.390625 284.242188 71.9375 260.1875 59.765625 C 234.035156 47.746094 208.503906 41.738281 183.59375 41.742188 C 149.90625 41.078125 118.996094 53.375 90.855469 78.628906 C 119.910156 55.4375 152.386719 45.152344 188.289062 47.773438 C 230.023438 51.550781 265.042969 66.492188 293.355469 92.597656 C 308.78125 107.171875 321.683594 127.371094 332.066406 153.199219 C 334.066406 146.636719 334.636719 142.695312 333.773438 141.371094 C 337.894531 153.730469 340.34375 166.558594 341.113281 179.859375 C 343.902344 217.460938 332.140625 252.898438 305.824219 286.167969 C 349.003906 237.394531 357.746094 183.027344 332.050781 123.074219 C 318.0625 94.449219 299.695312 73.53125 276.941406 60.316406 C 248.492188 43.285156 219.167969 34.636719 188.96875 34.371094 M 305.773438 286.222656 L 304.6875 287.394531 C 301.414062 290.933594 297.902344 294.511719 294.15625 298.132812 L 296.691406 296.101562 L 297.246094 295.636719 C 297.40625 295.527344 298.046875 294.917969 299.167969 293.808594 C 300.105469 292.855469 301.132812 291.742188 302.25 290.464844 L 303.96875 288.445312 L 305.773438 286.222656 M 80.710938 88.425781 L 78.039062 91.242188 C 47.664062 125.292969 34.125 163.523438 37.425781 205.933594 C 32.539062 187.699219 32.796875 168.628906 38.191406 148.71875 C 43.402344 127.65625 52.097656 109.300781 64.277344 93.648438 C 44.109375 116.792969 33.042969 146.429688 31.074219 182.558594 C 31.015625 189.074219 32.101562 197.238281 34.335938 207.050781 C 42.207031 234.980469 46.808594 249.804688 48.148438 251.519531 C 56.824219 271.277344 67.042969 286.621094 78.796875 297.550781 C 93.8125 311.605469 110.347656 322.152344 128.40625 329.191406 C 146.628906 336.757812 163.898438 340.390625 180.207031 340.09375 C 203.535156 339.589844 225.460938 336.105469 245.988281 329.652344 C 260.894531 324.335938 276.9375 313.839844 294.125 298.160156 C 276.34375 312.332031 261.054688 321.398438 248.257812 325.359375 C 224.308594 331.941406 202.199219 335.074219 181.933594 334.757812 C 169.226562 335.644531 151.125 331.027344 127.636719 320.917969 C 110.476562 313.410156 96.308594 304.144531 85.128906 293.117188 C 76.191406 284.15625 69.402344 275.792969 64.757812 268.03125 C 78.59375 284.636719 98.667969 300.488281 124.984375 315.582031 C 137.628906 322.628906 150.222656 327.679688 162.757812 330.734375 C 165.984375 331.46875 167.808594 331.734375 168.226562 331.527344 C 168.453125 331.453125 168.433594 331.296875 168.160156 331.050781 C 168.714844 331.4375 169.542969 331.074219 170.648438 329.964844 C 171.582031 328.835938 172.191406 327.722656 172.480469 326.632812 C 155.871094 326.246094 130.289062 314.914062 95.730469 292.640625 C 76.007812 277.917969 61.164062 260.644531 51.203125 240.820312 C 41.769531 218.253906 39.734375 191.46875 45.101562 160.460938 C 49.042969 136.398438 60.914062 112.386719 80.710938 88.425781 " fill-opacity="1" fill-rule="nonzero"/></g><g clip-path="url(#c4ead29093)"><g clip-path="url(#7697cd6e42)"><g clip-path="url(#ed29ce9fc6)"><path fill="#00b1cc" d="M 261.527344 280.746094 L 192.140625 223.644531 C 188.625 220.761719 185.90625 223.964844 189.269531 227.019531 L 201.371094 237.949219 C 203.734375 240.089844 205.425781 242.074219 207.011719 244.742188 L 232.011719 286.824219 C 235.28125 292.308594 233.292969 296.035156 230.128906 297.957031 C 226.964844 299.871094 222.472656 299.941406 218.652344 294.359375 L 171.351562 225.265625 C 168.78125 221.515625 165.234375 224.128906 167.269531 228.191406 L 173.328125 240.195312 L 183.652344 292.613281 C 184.507812 296.925781 182.09375 299.953125 179.285156 300.636719 C 174.988281 301.714844 172.378906 298.371094 171.4375 295.0625 L 145.183594 202.882812 L 123.699219 147.570312 L 112.101562 127.835938 C 109.46875 123.335938 108.378906 117.863281 109.527344 113.902344 C 111.933594 105.597656 118.351562 97.46875 126.628906 92.011719 C 137.613281 84.777344 151.324219 82.300781 163.566406 89.234375 L 172.25 95.046875 C 173.917969 96.175781 175.191406 96.472656 177.105469 96.660156 L 205.714844 99.59375 C 209 99.921875 211.59375 100.640625 214.535156 101.921875 L 242.636719 114.171875 C 245.003906 115.214844 246.09375 116.3125 247.613281 118.265625 L 267.433594 143.71875 C 269.84375 146.828125 267.644531 147.890625 265.300781 148.804688 C 261.570312 150.289062 254.910156 149.253906 250.363281 145.679688 L 233.855469 132.976562 C 233.378906 132.59375 212.039062 129.722656 212.039062 129.722656 C 196.285156 127.539062 185.378906 146.457031 193.132812 159.632812 L 205.425781 180.519531 C 205.972656 181.453125 206.9375 182.066406 208.007812 182.171875 L 232.714844 184.75 C 234.125 184.90625 235.484375 184.164062 236.128906 182.894531 L 243.804688 167.234375 C 246.246094 162.277344 251.574219 159.902344 255.769531 158.609375 C 262.054688 156.667969 266.585938 158.527344 263.988281 164.488281 L 248.84375 199.265625 C 246.550781 204.539062 243.214844 206.535156 238.472656 206.140625 L 190.640625 202.003906 L 175.917969 189.410156 C 172.367188 186.375 169.019531 189.714844 172.3125 193.042969 L 187.082031 207.914062 C 187.617188 208.371094 188.304688 208.644531 189.003906 208.710938 L 210.601562 210.574219 C 215.199219 210.960938 216.628906 211.644531 219.660156 214.761719 L 272.5 268.855469 C 281.292969 277.839844 268.902344 286.796875 261.527344 280.746094 Z M 261.527344 280.746094 " fill-opacity="1" fill-rule="nonzero"/></g></g></g></svg>